<svg version="1.1" xmlns="http://www.w3.org/2000/svg" viewBox="0 0 91.23809523809541 93.52380952380952" width="91.23809523809541" height="93.52380952380952">
  <!-- svg-source:excalidraw -->
  
  <defs>
    <style>
      @font-face {
        font-family: "Virgil";
        src: url("https://excalidraw.com/Virgil.woff2");
      }
      @font-face {
        font-family: "Cascadia";
        src: url("https://excalidraw.com/Cascadia.woff2");
      }
    </style>
  </defs>
  <g stroke-linecap="round" transform="translate(10 10) rotate(0 35.61904761904765 36.76190476190476)"><path d="M35.62 0 C42.49 -0.49, 51.57 3.06, 57.31 7.6 C63.04 12.14, 68.16 20.05, 70.03 27.26 C71.9 34.47, 71.29 43.96, 68.52 50.85 C65.75 57.74, 59.67 64.89, 53.4 68.61 C47.14 72.34, 38.1 74.19, 30.94 73.2 C23.77 72.22, 15.51 68.01, 10.4 62.73 C5.3 57.44, 1.23 48.91, 0.3 41.51 C-0.64 34.11, 1.18 24.79, 4.8 18.33 C8.42 11.88, 16.91 5.83, 22.05 2.77 C27.18 -0.28, 33.36 0.34, 35.62 0 C37.88 -0.34, 35.62 0.12, 35.62 0.74 M35.62 0 C42.49 -0.49, 51.57 3.06, 57.31 7.6 C63.04 12.14, 68.16 20.05, 70.03 27.26 C71.9 34.47, 71.29 43.96, 68.52 50.85 C65.75 57.74, 59.67 64.89, 53.4 68.61 C47.14 72.34, 38.1 74.19, 30.94 73.2 C23.77 72.22, 15.51 68.01, 10.4 62.73 C5.3 57.44, 1.23 48.91, 0.3 41.51 C-0.64 34.11, 1.18 24.79, 4.8 18.33 C8.42 11.88, 16.91 5.83, 22.05 2.77 C27.18 -0.28, 33.36 0.34, 35.62 0 C37.88 -0.34, 35.62 0.12, 35.62 0.74" stroke="#495057" stroke-width="2" fill="none"></path></g><g stroke-linecap="round"><g transform="translate(53.24565034041689 35.34310604804162) rotate(2.030914236853237 0.9961079013410199 16.653230948295445)"><path d="M0 0 C0.33 5.55, 1.66 27.76, 1.99 33.31 M0 0 C0.33 5.55, 1.66 27.76, 1.99 33.31" stroke="#1864ab" stroke-width="2" fill="none"></path></g><g transform="translate(53.24565034041689 35.34310604804162) rotate(2.030914236853237 0.9961079013410199 16.653230948295445)"><path d="M-4.64 18 C-2.86 22.12, -1.07 26.23, 1.99 33.31 M-4.64 18 C-2.96 21.87, -1.28 25.74, 1.99 33.31" stroke="#1864ab" stroke-width="2" fill="none"></path></g><g transform="translate(53.24565034041689 35.34310604804162) rotate(2.030914236853237 0.9961079013410199 16.653230948295445)"><path d="M6.75 17.32 C5.47 21.62, 4.19 25.92, 1.99 33.31 M6.75 17.32 C5.55 21.36, 4.34 25.41, 1.99 33.31" stroke="#1864ab" stroke-width="2" fill="none"></path></g></g><g stroke-linecap="round"><g transform="translate(39.71794871794839 63.90109890109895) rotate(0 0 -19.047619047619037)"><path d="M0 0 C0 -6.35, 0 -31.75, 0 -38.1 M0 0 C0 -6.35, 0 -31.75, 0 -38.1" stroke="#1864ab" stroke-width="2" fill="none"></path></g><g transform="translate(39.71794871794839 63.90109890109895) rotate(0 0 -19.047619047619037)"><path d="M6.51 -20.2 C4.02 -27.04, 1.53 -33.89, 0 -38.1 M6.51 -20.2 C5.16 -23.92, 3.81 -27.64, 0 -38.1" stroke="#1864ab" stroke-width="2" fill="none"></path></g><g transform="translate(39.71794871794839 63.90109890109895) rotate(0 0 -19.047619047619037)"><path d="M-6.51 -20.2 C-4.02 -27.04, -1.53 -33.89, 0 -38.1 M-6.51 -20.2 C-5.16 -23.92, -3.81 -27.64, 0 -38.1" stroke="#1864ab" stroke-width="2" fill="none"></path></g></g></svg>